# xmcd
#
# Track frame offsets:
#	150
#	76731
#	95904
#	117042
#	130934
#	145452
#	168127
#	180317
#	204908
#	229203
#	248613
#	264185
#	288527
#	308824
#	320479
#
# Disc length: 4450 seconds
#
# Revision: 1
# Processed by: cddbd v1.5.1PL0 Copyright (c) Steve Scherf et al.
# Submitted via: audiograbber 1.83.01
#
DISCID=c611600f
DTITLE=Various Artist - Diggin' even deeper #1
DYEAR=2004
DGENRE=Soul
TTITLE0=Isaac Hayes - Ain't No Sunshine/Lonely Avenue
TTITLE1=Philadelphia Allstars - Let's Clean up the Ghetto
TTITLE2=Barry White - It's Ecstasy (when you lay down next to me)
TTITLE3=Charles Wright and The 103rd Street Rhythm Band - Your Love (Means Everyt
TTITLE3=hing to Me)
TTITLE4=Johnnie Taylor - Toe Hold
TTITLE5=Lynn White (w/David Hudson) - Love And Happiness
TTITLE6=Marvin Gaye - Chained
TTITLE7=D'Angelo - Higher
TTITLE8=Curtis Mayfield - Here but I'm Gone
TTITLE9=Van Morrison - Joe Harper Saturday Morning
TTITLE10=Jimi Hendrix - Long Hot Summer Night
TTITLE11=Black Crowes - Remedy
TTITLE12=Bill Evans - Loose My Number
TTITLE13=John Lee Hooker - Boom Boom
TTITLE14=Booker T and The MGs - Green Onions
EXTD=
EXTT0=
EXTT1=
EXTT2=
EXTT3=
EXTT4=
EXTT5=
EXTT6=
EXTT7=
EXTT8=
EXTT9=
EXTT10=
EXTT11=
EXTT12=
EXTT13=
EXTT14=
PLAYORDER=
